<svg width="32" height="32" viewBox="0 0 32 32" fill="none" xmlns="http://www.w3.org/2000/svg">
  <!-- Background gradient -->
  <defs>
    <linearGradient id="bgGradient" x1="0%" y1="0%" x2="100%" y2="100%">
      <stop offset="0%" style="stop-color:#fbbf24;stop-opacity:1" />
      <stop offset="50%" style="stop-color:#f97316;stop-opacity:1" />
      <stop offset="100%" style="stop-color:#ef4444;stop-opacity:1" />
    </linearGradient>
    <linearGradient id="wheatGradient" x1="0%" y1="0%" x2="100%" y2="100%">
      <stop offset="0%" style="stop-color:#facc15;stop-opacity:1" />
      <stop offset="100%" style="stop-color:#f59e0b;stop-opacity:1" />
    </linearGradient>
    <linearGradient id="cookieGradient" x1="0%" y1="0%" x2="100%" y2="100%">
      <stop offset="0%" style="stop-color:#ec4899;stop-opacity:1" />
      <stop offset="100%" style="stop-color:#ef4444;stop-opacity:1" />
    </linearGradient>
  </defs>
  
  <!-- Main rounded background -->
  <rect x="2" y="2" width="28" height="28" rx="6" fill="url(#bgGradient)" stroke="rgba(255,255,255,0.2)" stroke-width="1"/>
  
  <!-- Background pattern overlay -->
  <rect x="2" y="2" width="28" height="28" rx="6" fill="url(#bgGradient)" opacity="0.1"/>
  
  <!-- Main chef hat icon -->
  <path d="M16 8C18.5 8 20.5 9.5 21 12C21.5 14.5 20 16.5 18 17C16 17.5 14 16.5 13.5 14C13 11.5 14.5 9.5 16 8Z" fill="white" opacity="0.9"/>
  <path d="M13 14C13.5 16.5 15.5 17.5 17.5 17C19.5 16.5 21 14.5 20.5 12C20 9.5 18 8.5 16 9C14 9.5 12.5 11.5 13 14Z" fill="white" opacity="0.7"/>
  
  <!-- Chef hat details -->
  <ellipse cx="16" cy="12" rx="3" ry="1.5" fill="white" opacity="0.8"/>
  <ellipse cx="16" cy="13.5" rx="2.5" ry="1" fill="white" opacity="0.6"/>
  
  <!-- Wheat decoration (top right) -->
  <circle cx="24" cy="8" r="3" fill="url(#wheatGradient)"/>
  <path d="M24 6L24.5 5.5M24 6L23.5 5.5M24 6L24 5M24 6L24.5 6.5M24 6L23.5 6.5" stroke="white" stroke-width="0.5" stroke-linecap="round"/>
  
  <!-- Cookie decoration (bottom left) -->
  <circle cx="8" cy="24" r="2.5" fill="url(#cookieGradient)"/>
  <circle cx="7.5" cy="23.5" r="0.3" fill="white" opacity="0.8"/>
  <circle cx="8.5" cy="24.5" r="0.2" fill="white" opacity="0.6"/>
  <circle cx="8.5" cy="23.5" r="0.2" fill="white" opacity="0.7"/>
</svg> 